<?xml version="1.0" encoding="utf-8"?>
<!-- Generator: Adobe Illustrator 26.0.0, SVG Export Plug-In . SVG Version: 6.00 Build 0)  -->
<svg version="1.1" xmlns="http://www.w3.org/2000/svg" xmlns:xlink="http://www.w3.org/1999/xlink" x="0px" y="0px" width="217.7px"
	 height="122.7px" viewBox="0 0 217.7 122.7" style="enable-background:new 0 0 217.7 122.7;" xml:space="preserve">
<style type="text/css">
	.st0{fill:#006647;}
</style>
<g>
	<g>
		<g>
			<path class="st0" d="M98.6,8.5c-15.3-1.8-49.1,7.7-47.2,53.1c0,0-14.6,0.8-22.7-2.6v7.7C40.3,69.8,51.4,69,51.4,69v23.5h6.8V68.1
				C58.2,68.1,106.8,58.5,98.6,8.5z M58.2,60.6C56.5,31.3,74.5,17,92.4,15.3C92.8,20.9,93.3,51.8,58.2,60.6z"/>
		</g>
	</g>
	<path class="st0" d="M50.5,44.4c-0.8-6.2-4.2-17.9-14.5-27.9L50.5,0L65,17.2C58.5,23.3,51.8,34.1,50.5,44.4z"/>
	<g>
		<g>
			<path class="st0" d="M1.3,6.7C-4,24.1,5.9,60.6,49.1,59.4C51.3,17.2,18.8,5.7,1.3,6.7z M42,51.8c-11.3,0-35.2-8.5-34.4-37.7
				C39.6,17.5,42.7,50.5,42,51.8z"/>
		</g>
	</g>
	<path class="st0" d="M87.8,25c0,1.7-1.3,3-3,3c-1.7,0-3-1.3-3-3c0-1.7,1.3-3,3-3C86.5,21.9,87.8,23.3,87.8,25z"/>
</g>
<path class="st0" d="M72.3,115.8c0-1.2-0.4-2.4-1.8-2.4c-1.8,0-2,2.4-2,3.7c0,1.5,0.2,3.4,2.1,3.4c1.2,0,1.8-1,1.9-2.1l2.5,0.2
	c-0.3,2.5-2,4-4.5,4c-3.3,0-4.9-2.7-4.9-5.7c0-3,1.6-5.7,4.9-5.7c2.8,0,4.2,1.6,4.5,4.2L72.3,115.8z M70.5,110.5l-3.1-1.9h1.7
	l1.4,0.6l1.4-0.6h1.7L70.5,110.5z"/>
<path class="st0" d="M78.7,113.7v2.2h4.2v2.1h-4.2v2.4H84v2.1h-7.9v-11H84v2.1H78.7z"/>
<path class="st0" d="M91,114.7c-0.3-0.9-0.9-1.3-1.9-1.3c-0.7,0-1.5,0.2-1.5,1c0,0.8,1,1,1.6,1.1c0.9,0.2,2.1,0.4,2.9,0.9
	c0.9,0.6,1.4,1.5,1.4,2.6c0,1.1-0.5,2.1-1.4,2.8c-0.9,0.7-2.1,0.9-3.2,0.9c-2.1,0-3.9-0.9-4.4-3l2.4-0.5c0.3,1.2,1.2,1.6,2.3,1.6
	c0.7,0,1.7-0.3,1.7-1.2c0-0.9-1.3-1.1-1.9-1.2c-2-0.4-3.9-1-3.9-3.4c0-1,0.4-1.9,1.2-2.6c0.8-0.7,1.7-0.9,2.8-0.9
	c1.9,0,3.5,0.7,4.2,2.6L91,114.7z"/>
<path class="st0" d="M97.4,116.7l3.4-5.2h2.5l-2.6,3.9l3.3,7.1h-2.8l-2.2-4.8l-1.6,2.2v2.5h-2.5v-11h2.5V116.7z"/>
<path class="st0" d="M107.4,113.7v2.2h4.2v2.1h-4.2v2.4h5.3v2.1h-7.9v-11h7.9v2.1H107.4z M110.5,109.5l-2.8,1l-0.4-1l2.7-1.4
	L110.5,109.5z"/>
<path class="st0" d="M121.1,122.5h-2.6v-11h4.6c1,0,2,0,2.8,0.6c0.9,0.6,1.4,1.7,1.4,2.7c0,1.2-0.7,2.4-1.9,2.8l2,4.9h-2.9l-1.7-4.3
	h-1.9V122.5z M121.1,116.3h1.4c0.5,0,1.1,0,1.6-0.2c0.4-0.3,0.6-0.8,0.6-1.2c0-0.4-0.3-0.9-0.6-1.1c-0.4-0.3-1.2-0.2-1.7-0.2h-1.3
	V116.3z"/>
<path class="st0" d="M131.4,113.7v2.2h4.2v2.1h-4.2v2.4h5.3v2.1h-7.9v-11h7.9v2.1H131.4z"/>
<path class="st0" d="M140.4,122.5h-2.6v-11h4.1c1.1,0,2.1,0,3,0.6c0.9,0.7,1.4,1.6,1.4,2.7c0,1-0.4,2.1-1.2,2.8
	c-0.9,0.8-2,0.8-3.1,0.8h-1.7V122.5z M141.9,116.5c0.6,0,1.1,0,1.6-0.5c0.2-0.3,0.4-0.6,0.4-1c0-0.4-0.2-0.9-0.5-1.2
	c-0.4-0.3-0.9-0.3-1.4-0.3h-1.4v2.9H141.9z"/>
<path class="st0" d="M156.2,118.2c0,1.2,0,2.5-0.9,3.3c-0.9,0.9-2.2,1.2-3.4,1.2c-1.2,0-2.5-0.2-3.4-0.9c-1.1-0.9-1.1-2.2-1.1-3.6
	v-6.7h2.8v6.7c0,0.5,0,1.2,0.2,1.7c0.3,0.6,1,0.7,1.6,0.7c0.5,0,1.3-0.2,1.6-0.6c0.4-0.5,0.3-1.3,0.3-1.8v-6.7h2.2V118.2z"/>
<path class="st0" d="M162.9,111.5c0.9,0,1.8,0,2.5,0.5c0.9,0.6,1.3,1.4,1.3,2.4c0,1.2-0.8,2.1-2,2.4v0c1.4,0.3,2.3,1.3,2.3,2.7
	c0,1-0.6,1.8-1.3,2.4c-0.8,0.6-1.9,0.6-2.8,0.6H158v-11H162.9z M160.5,115.9h1.7c0.4,0,1,0,1.4-0.3c0.3-0.2,0.5-0.6,0.5-1
	c0-0.4-0.2-0.8-0.5-1c-0.4-0.2-1-0.2-1.5-0.2h-1.6V115.9z M160.5,120.5h1.8c0.5,0,1.1,0,1.5-0.2c0.4-0.2,0.6-0.7,0.6-1.1
	c0-0.4-0.3-0.8-0.6-1.1c-0.4-0.2-0.9-0.2-1.3-0.2h-1.9V120.5z"/>
<path class="st0" d="M175.2,120.4v2.2h-7v-11h2.6v8.8H175.2z"/>
<path class="st0" d="M178.6,122.5h-2.6v-11h2.6V122.5z"/>
<path class="st0" d="M183.1,116.7l3.4-5.2h2.5l-2.6,3.9l3.3,7.1h-2.8l-2.2-4.8l-1.6,2.2v2.5h-2.5v-11h2.5V116.7z"/>
<path class="st0" d="M195.7,117.9v4.6h-2.6v-4.6l-3.5-6.4h3l2.1,4.2l2.1-4.2h2.3L195.7,117.9z"/>
<path class="st0" d="M75.5,83.6h-2.8l-0.7-2.3h-3.6l-0.7,2.3h-2.3l3.5-11h3L75.5,83.6z M71.5,79.3l-1.2-3.9l-1.2,3.9H71.5z"/>
<path class="st0" d="M80.3,79.8v-2.1h4.5v5.9h-1.2l-0.4-1.3c-0.8,1-1.7,1.4-3,1.4c-3.2,0-4.6-2.7-4.6-5.6c0-3,1.5-5.8,4.8-5.8
	c2.4,0,4,1.4,4.3,3.8l-2.4,0.3c-0.1-1.1-0.7-2-1.9-2c-1.8,0-2.1,2.4-2.1,3.7c0,1.4,0.4,3.4,2.2,3.4c1.1,0,1.9-0.8,1.8-1.9H80.3z"/>
<path class="st0" d="M89.2,74.8V77h4.2v2.1h-4.2v2.4h5.3v2.1h-7.9v-11h7.9v2.1H89.2z"/>
<path class="st0" d="M104.1,83.6h-2.2l-4.2-7.4h-0.1v7.4h-2v-11h2.8l3.7,6.5h0v-6.5h2V83.6z"/>
<path class="st0" d="M113.3,74.8h-2.8v8.8H108v-8.8h-2.8v-2.2h8.1V74.8z"/>
<path class="st0" d="M123,79.3c0,1.2,0,2.5-0.9,3.4c-0.9,0.9-2.2,1.2-3.4,1.2c-1.2,0-2.5-0.2-3.4-1c-1.1-0.9-1.1-2.2-1.1-3.6v-6.7
	h2.8v6.7c0,0.5,0,1.2,0.2,1.7c0.3,0.6,1,0.7,1.7,0.7c0.5,0,1.3-0.2,1.6-0.6c0.4-0.5,0.3-1.3,0.3-1.8v-6.7h2.2V79.3z"/>
<path class="st0" d="M127.3,83.6h-2.6v-11h4.6c1,0,2,0,2.8,0.6c0.9,0.6,1.4,1.7,1.4,2.7c0,1.2-0.7,2.4-1.9,2.8l2,4.9h-2.9l-1.7-4.3
	h-1.9V83.6z M127.3,77.4h1.4c0.5,0,1.1,0,1.6-0.2c0.4-0.3,0.6-0.8,0.6-1.2c0-0.4-0.3-0.9-0.6-1.1c-0.4-0.3-1.2-0.2-1.6-0.2h-1.3
	V77.4z"/>
<path class="st0" d="M144.1,83.6h-2.8l-0.7-2.3h-3.6l-0.7,2.3h-2.3l3.5-11h3L144.1,83.6z M140.1,79.3l-1.2-3.9l-1.2,3.9H140.1z"/>
<path class="st0" d="M148.1,82.1c-0.8-1.1-1.2-2.6-1.2-3.9c0-2.9,1.5-5.6,4.7-5.6c1.5,0,2.6,0.5,3.5,1.7c0.8,1.1,1.2,2.6,1.2,4
	c0,1.3-0.3,2.8-1,3.8c-0.8,1.2-2.1,1.9-3.6,1.9C150.2,83.8,149,83.3,148.1,82.1z M150,75.8c-0.3,0.7-0.4,1.6-0.4,2.3
	c0,1.4,0.2,3.6,2,3.6c0.9,0,1.4-0.4,1.7-1.3c0.3-0.7,0.3-1.6,0.3-2.3c0-0.8-0.1-1.7-0.4-2.5c-0.3-0.7-0.8-1.1-1.6-1.1
	C150.8,74.6,150.3,75,150,75.8z"/>
<path class="st0" d="M164,76.9c0-1.2-0.4-2.4-1.8-2.4c-1.8,0-2,2.4-2,3.7c0,1.5,0.2,3.4,2.1,3.4c1.2,0,1.8-1,1.9-2.1l2.5,0.2
	c-0.3,2.5-2,4-4.5,4c-3.3,0-4.9-2.7-4.9-5.7c0-3,1.6-5.7,4.9-5.7c2.8,0,4.2,1.6,4.5,4.2L164,76.9z"/>
<path class="st0" d="M176.6,83.6H174v-4.5h-3.4v4.5h-2.6v-11h2.6v4.3h3.4v-4.3h2.6V83.6z"/>
<path class="st0" d="M181.1,83.6h-2.6v-11h4.6c1,0,2,0,2.8,0.6c0.9,0.6,1.4,1.7,1.4,2.7c0,1.2-0.7,2.4-1.9,2.8l2,4.9h-2.9l-1.7-4.3
	h-1.9V83.6z M181.1,77.4h1.4c0.5,0,1.1,0.1,1.6-0.2c0.4-0.3,0.6-0.8,0.6-1.2c0-0.4-0.3-0.9-0.6-1.1c-0.4-0.3-1.2-0.2-1.7-0.2h-1.3
	V77.4z"/>
<path class="st0" d="M197.8,83.6h-2.8l-0.7-2.3h-3.6l-0.7,2.3h-2.3l3.5-11h3L197.8,83.6z M193.8,79.3l-1.2-3.9l-1.2,3.9H193.8z"/>
<path class="st0" d="M207.3,83.6h-2.2l-4.2-7.4h-0.1v7.4h-2v-11h2.8l3.7,6.5h0v-6.5h2V83.6z"/>
<path class="st0" d="M214.2,79v4.6h-2.6V79l-3.5-6.4h3l2.1,4.2l2.1-4.2h2.3L214.2,79z"/>
<path class="st0" d="M68.1,103.2h-2.6v-11h4.1c1.1,0,2,0,3,0.6c0.9,0.7,1.4,1.6,1.4,2.7c0,1-0.4,2.1-1.2,2.8c-0.9,0.8-2,0.8-3.1,0.8
	h-1.7V103.2z M69.6,97.1c0.6,0,1.1,0,1.6-0.5c0.2-0.3,0.3-0.6,0.3-1c0-0.4-0.2-0.9-0.5-1.2c-0.4-0.3-0.9-0.3-1.4-0.3h-1.4v2.9H69.6z
	"/>
<path class="st0" d="M77.9,103.2h-2.6v-11H80c1,0,2,0,2.8,0.6c0.9,0.6,1.4,1.7,1.4,2.7c0,1.3-0.7,2.4-1.9,2.8l2,4.9h-2.9l-1.7-4.3
	h-1.9V103.2z M79.3,91.1l-3.1-1.9h1.7l1.4,0.6l1.4-0.6h1.6L79.3,91.1z M77.9,96.9h1.4c0.5,0,1.1,0,1.6-0.2c0.4-0.3,0.6-0.8,0.6-1.2
	c0-0.4-0.3-0.9-0.6-1.1c-0.4-0.3-1.2-0.2-1.7-0.2h-1.3V96.9z"/>
<path class="st0" d="M88.7,90.2l-2.8,1l-0.4-1l2.7-1.4L88.7,90.2z M88.2,103.2h-2.6v-11h2.6V103.2z"/>
<path class="st0" d="M92.8,103.2h-2.6v-11h4.6c1,0,2,0,2.8,0.6c0.9,0.6,1.4,1.7,1.4,2.7c0,1.3-0.7,2.4-1.9,2.8l2,4.9h-2.9l-1.7-4.3
	h-1.9V103.2z M92.8,96.9h1.4c0.5,0,1.1,0,1.6-0.2c0.4-0.3,0.6-0.8,0.6-1.2c0-0.4-0.3-0.9-0.6-1.1c-0.4-0.3-1.2-0.2-1.6-0.2h-1.3
	V96.9z"/>
<path class="st0" d="M101,101.6c-0.8-1.1-1.2-2.6-1.2-3.9c0-2.9,1.5-5.6,4.7-5.6c1.5,0,2.6,0.5,3.5,1.7c0.8,1.1,1.2,2.6,1.2,4
	c0,1.2-0.3,2.8-1,3.8c-0.8,1.3-2.1,1.9-3.6,1.9C103.1,103.3,101.9,102.8,101,101.6z M102.9,95.4c-0.3,0.7-0.4,1.6-0.4,2.3
	c0,1.4,0.2,3.6,2,3.6c0.9,0,1.4-0.4,1.7-1.2c0.3-0.7,0.3-1.6,0.3-2.3c0-0.8-0.1-1.7-0.4-2.5c-0.3-0.7-0.8-1.1-1.6-1.1
	C103.7,94.1,103.2,94.6,102.9,95.4z"/>
<path class="st0" d="M113.9,92.2c1.6,0,2.9,0.1,4.1,1.2c1.2,1.1,1.7,2.6,1.7,4.2c0,1.5-0.4,2.9-1.4,4c-1.1,1.2-2.4,1.5-4,1.5h-3.6
	v-11H113.9z M113.2,101.1h0.9c1.1,0,1.8-0.2,2.4-1.2c0.4-0.7,0.6-1.6,0.6-2.4c0-0.9-0.3-1.8-0.8-2.5c-0.6-0.8-1.2-0.9-2.2-0.9h-0.9
	V101.1z"/>
<path class="st0" d="M125.5,98.5v4.6h-2.6v-4.6l-3.5-6.4h3l2.1,4.2l2.1-4.2h2.3L125.5,98.5z"/>
<path class="st0" d="M142.6,103.2h-2.8l-0.7-2.3h-3.6l-0.7,2.3h-2.3l3.5-11h3L142.6,103.2z M138.5,98.9l-1.2-3.9l-1.2,3.9H138.5z"/>
<path class="st0" d="M150.6,97.3l3.4-5.2h2.5l-2.6,3.9l3.3,7.1h-2.8l-2.2-4.8l-1.6,2.2v2.5h-2.5v-11h2.5V97.3z"/>
<path class="st0" d="M160.7,103.2h-2.6v-11h4.6c1,0,2,0,2.8,0.6c0.9,0.6,1.4,1.7,1.4,2.7c0,1.3-0.7,2.4-1.9,2.8l2,4.9h-2.9l-1.7-4.3
	h-1.9V103.2z M160.7,96.9h1.4c0.5,0,1.1,0,1.6-0.2c0.4-0.3,0.6-0.8,0.6-1.2c0-0.4-0.3-0.9-0.6-1.1c-0.4-0.3-1.2-0.2-1.6-0.2h-1.3
	V96.9z"/>
<path class="st0" d="M177.5,103.2h-2.8l-0.7-2.3h-3.6l-0.7,2.3h-2.3l3.5-11h3L177.5,103.2z M173.4,98.9l-1.2-3.9l-1.2,3.9H173.4z"/>
<path class="st0" d="M183.2,99.8c0,2.5-1,3.5-3.4,3.5l-1.7-0.2V101c0.4,0.1,0.8,0.1,1.2,0.1c0.4,0,0.9-0.1,1.1-0.5
	c0.2-0.3,0.2-0.8,0.2-1.2v-7.3h2.6V99.8z"/>
<path class="st0" d="M187.6,103.2H185v-11h2.6V103.2z"/>
<path class="st0" d="M198,103.2h-2.2l-4.2-7.4h-0.1v7.4h-2v-11h2.8l3.7,6.5h0v-6.5h2V103.2z"/>
<path class="st0" d="M205,98.5v4.6h-2.6v-4.6l-3.5-6.4h3l2.1,4.2l2.1-4.2h2.3L205,98.5z"/>
</svg>
